<?xml version="1.0" encoding="utf-8" standalone="no"?>
<!DOCTYPE svg PUBLIC "-//W3C//DTD SVG 1.1//EN"
  "http://www.w3.org/Graphics/SVG/1.1/DTD/svg11.dtd">
<svg xmlns:xlink="http://www.w3.org/1999/xlink" width="324pt" height="324pt" viewBox="0 0 324 324" xmlns="http://www.w3.org/2000/svg" version="1.1">
 <metadata>
  <rdf:RDF xmlns:dc="http://purl.org/dc/elements/1.1/" xmlns:cc="http://creativecommons.org/ns#" xmlns:rdf="http://www.w3.org/1999/02/22-rdf-syntax-ns#">
   <cc:Work>
    <dc:type rdf:resource="http://purl.org/dc/dcmitype/StillImage"/>
    <dc:date>2023-06-11T22:04:29.019269</dc:date>
    <dc:format>image/svg+xml</dc:format>
    <dc:creator>
     <cc:Agent>
      <dc:title>Matplotlib v3.6.2, https://matplotlib.org/</dc:title>
     </cc:Agent>
    </dc:creator>
   </cc:Work>
  </rdf:RDF>
 </metadata>
 <defs>
  <style type="text/css">*{stroke-linejoin: round; stroke-linecap: butt}</style>
 </defs>
 <g id="figure_1">
  <g id="patch_1">
   <path d="M 0 324 
L 324 324 
L 324 0 
L 0 0 
z
" style="fill: #ffffff"/>
  </g>
  <g id="axes_1">
   <g id="patch_2">
    <path d="M 40.5 288.36 
L 291.6 288.36 
L 291.6 38.88 
L 40.5 38.88 
z
" style="fill: #ffffff"/>
   </g>
   <g id="PolyCollection_1">
    <path d="M 40.5 144.799497 
L 40.5 172.045503 
L 41.934857 178.378862 
L 43.369714 166.106801 
L 44.804571 189.596667 
L 46.239429 170.533902 
L 47.674286 170.15103 
L 49.109143 176.859794 
L 50.544 161.733674 
L 51.978857 185.656032 
L 53.413714 147.243937 
L 54.848571 170.06218 
L 56.283429 171.570154 
L 57.718286 157.512268 
L 59.153143 152.462526 
L 60.588 138.140946 
L 62.022857 158.174749 
L 63.457714 136.284734 
L 64.892571 145.254417 
L 66.327429 133.589296 
L 67.762286 140.860503 
L 69.197143 146.950828 
L 70.632 146.28476 
L 72.066857 140.880268 
L 73.501714 136.147249 
L 74.936571 138.143865 
L 76.371429 138.634828 
L 77.806286 125.850146 
L 79.241143 136.722207 
L 80.676 141.174168 
L 82.110857 124.025588 
L 83.545714 130.528063 
L 84.980571 136.676878 
L 86.415429 115.709588 
L 87.850286 150.483909 
L 89.285143 135.765426 
L 90.72 135.167859 
L 92.154857 141.692663 
L 93.589714 129.961509 
L 95.024571 142.351198 
L 96.459429 145.097593 
L 97.894286 125.934793 
L 99.329143 110.507663 
L 100.764 148.951141 
L 102.198857 134.162549 
L 103.633714 128.465593 
L 105.068571 126.95664 
L 106.503429 128.406207 
L 107.938286 132.72903 
L 109.373143 122.749415 
L 110.808 132.877983 
L 112.242857 112.651888 
L 113.677714 128.57659 
L 115.112571 121.340811 
L 116.547429 123.964392 
L 117.982286 103.256532 
L 119.417143 128.469674 
L 120.852 121.776793 
L 122.286857 125.042278 
L 123.721714 128.719983 
L 125.156571 129.535941 
L 126.591429 111.722386 
L 128.026286 103.952016 
L 129.461143 121.161878 
L 130.896 113.896063 
L 132.330857 113.233095 
L 133.765714 103.643609 
L 135.200571 103.083548 
L 136.635429 117.092377 
L 138.070286 104.708811 
L 139.505143 110.852109 
L 140.94 106.560429 
L 142.374857 119.917612 
L 143.809714 100.550811 
L 145.244571 119.564899 
L 146.679429 111.774207 
L 148.114286 121.502906 
L 149.549143 101.177532 
L 150.984 101.829457 
L 152.418857 81.816298 
L 153.853714 90.855 
L 155.288571 101.404773 
L 156.723429 113.015773 
L 158.158286 96.53215 
L 159.593143 96.446562 
L 161.028 97.362405 
L 162.462857 90.211374 
L 163.897714 108.811429 
L 165.332571 88.511932 
L 166.767429 94.555471 
L 168.202286 101.285383 
L 169.637143 77.048151 
L 171.072 90.643445 
L 172.506857 100.5366 
L 173.941714 86.854487 
L 175.376571 95.013 
L 176.811429 81.612429 
L 178.246286 81.352012 
L 179.681143 92.881894 
L 181.116 85.869426 
L 182.550857 102.080195 
L 183.985714 88.525187 
L 185.420571 82.946801 
L 186.855429 95.013 
L 188.290286 93.156277 
L 189.725143 92.861532 
L 191.16 86.486978 
L 192.594857 81.794179 
L 194.029714 82.744862 
L 195.464571 82.744862 
L 196.899429 106.031405 
L 198.334286 95.929376 
L 199.769143 92.234811 
L 201.204 92.467922 
L 202.638857 81.932138 
L 204.073714 84.524588 
L 205.508571 73.616138 
L 206.943429 82.207551 
L 208.378286 77.325242 
L 209.813143 70.892267 
L 211.248 74.033391 
L 212.682857 66.185406 
L 214.117714 77.73679 
L 215.552571 71.58415 
L 216.987429 85.103023 
L 218.422286 76.459487 
L 219.857143 76.556675 
L 221.292 74.708023 
L 222.726857 88.930773 
L 224.161714 65.329139 
L 225.596571 77.774138 
L 227.031429 90.430534 
L 228.466286 75.483991 
L 229.901143 87.974292 
L 231.336 85.644498 
L 232.770857 67.165941 
L 234.205714 77.048151 
L 235.640571 81.802517 
L 237.075429 82.328978 
L 238.510286 77.737374 
L 239.945143 81.477806 
L 241.38 81.352012 
L 242.814857 77.737374 
L 244.249714 77.830623 
L 245.684571 75.764906 
L 247.119429 61.18915 
L 248.554286 68.012944 
L 249.989143 82.083521 
L 251.424 84.219324 
L 252.858857 71.148786 
L 254.293714 67.818372 
L 255.728571 78.293504 
L 257.163429 73.131171 
L 258.598286 71.789964 
L 260.033143 82.539 
L 261.468 79.551184 
L 262.902857 68.629245 
L 264.337714 76.214919 
L 265.772571 67.540967 
L 267.207429 64.318785 
L 268.642286 55.682624 
L 270.077143 64.48238 
L 271.512 67.487116 
L 272.946857 68.602762 
L 274.381714 53.8488 
L 275.816571 66.550341 
L 277.251429 72.644894 
L 278.686286 62.1648 
L 280.121143 71.606906 
L 281.556 74.909334 
L 282.990857 78.718375 
L 284.425714 69.599878 
L 285.860571 65.907 
L 287.295429 55.512 
L 288.730286 55.512 
L 288.730286 55.512 
L 288.730286 55.512 
L 287.295429 55.512 
L 285.860571 53.433 
L 284.425714 52.512122 
L 282.990857 65.569625 
L 281.556 56.904666 
L 280.121143 56.049094 
L 278.686286 55.512 
L 277.251429 58.337506 
L 275.816571 51.126459 
L 274.381714 47.196 
L 272.946857 62.379638 
L 271.512 57.396884 
L 270.077143 52.08562 
L 268.642286 44.253376 
L 267.207429 55.021215 
L 265.772571 51.799033 
L 264.337714 59.757081 
L 262.902857 59.026755 
L 261.468 61.964816 
L 260.033143 70.065 
L 258.598286 55.866036 
L 257.163429 59.276829 
L 255.728571 61.242496 
L 254.293714 57.461628 
L 252.858857 63.635214 
L 251.424 69.572676 
L 249.989143 62.204479 
L 248.554286 54.891056 
L 247.119429 47.75585 
L 245.684571 60.207094 
L 244.249714 60.220377 
L 242.814857 58.234626 
L 241.38 65.014988 
L 239.945143 69.047194 
L 238.510286 58.234626 
L 237.075429 61.959022 
L 235.640571 70.801483 
L 234.205714 58.923849 
L 232.770857 52.174059 
L 231.336 64.880502 
L 229.901143 60.471708 
L 228.466286 66.725009 
L 227.031429 70.489466 
L 225.596571 62.355862 
L 224.161714 56.089861 
L 222.726857 67.831227 
L 221.292 59.184977 
L 219.857143 63.573325 
L 218.422286 57.433513 
L 216.987429 69.579977 
L 215.552571 58.15085 
L 214.117714 56.15621 
L 212.682857 55.233594 
L 211.248 55.701609 
L 209.813143 60.921733 
L 208.378286 60.725758 
L 206.943429 66.238449 
L 205.508571 58.197862 
L 204.073714 70.158412 
L 202.638857 66.513862 
L 201.204 62.215078 
L 199.769143 72.843189 
L 198.334286 58.753624 
L 196.899429 69.441595 
L 195.464571 61.543138 
L 194.029714 61.543138 
L 192.594857 60.414821 
L 191.16 66.117022 
L 189.725143 74.295468 
L 188.290286 69.842723 
L 186.855429 74.223 
L 185.420571 61.341199 
L 183.985714 66.157813 
L 182.550857 71.313805 
L 181.116 56.339574 
L 179.681143 72.196106 
L 178.246286 65.014988 
L 176.811429 64.754571 
L 175.376571 65.907 
L 173.941714 67.828513 
L 172.506857 77.0154 
L 171.072 64.039555 
L 169.637143 58.923849 
L 168.202286 78.345617 
L 166.767429 68.443529 
L 165.332571 72.408068 
L 163.897714 79.135571 
L 162.462857 70.708626 
L 161.028 78.110595 
L 159.593143 68.631438 
L 158.158286 83.09885 
L 156.723429 87.405227 
L 155.288571 80.305227 
L 153.853714 78.381 
L 152.418857 68.708702 
L 150.984 88.196543 
L 149.549143 82.611468 
L 148.114286 105.945094 
L 146.679429 88.646793 
L 145.244571 95.409101 
L 143.809714 81.159189 
L 142.374857 95.056388 
L 140.94 89.702571 
L 139.505143 85.410891 
L 138.070286 85.317189 
L 136.635429 83.328623 
L 135.200571 89.021452 
L 133.765714 80.145391 
L 132.330857 85.108905 
L 130.896 88.603937 
L 129.461143 95.891122 
L 128.026286 88.152984 
L 126.591429 101.172614 
L 125.156571 114.544059 
L 123.721714 111.202017 
L 122.286857 106.563722 
L 120.852 101.513207 
L 119.417143 111.452326 
L 117.982286 84.690468 
L 116.547429 101.404608 
L 115.112571 101.949189 
L 113.677714 103.02941 
L 112.242857 104.401112 
L 110.808 115.360017 
L 109.373143 102.619585 
L 107.938286 103.03497 
L 106.503429 105.278793 
L 105.068571 110.88636 
L 103.633714 101.061407 
L 102.198857 109.917451 
L 100.764 111.760859 
L 99.329143 85.755337 
L 97.894286 105.671207 
L 96.459429 117.693407 
L 95.024571 122.518802 
L 93.589714 97.486491 
L 92.154857 116.940337 
L 90.72 106.833141 
L 89.285143 106.235574 
L 87.850286 116.465091 
L 86.415429 101.343412 
L 84.980571 101.166122 
L 83.545714 105.235937 
L 82.110857 109.659412 
L 80.676 113.300832 
L 79.241143 113.594793 
L 77.806286 103.676854 
L 76.371429 109.603172 
L 74.936571 105.936135 
L 73.501714 114.169751 
L 72.066857 115.673732 
L 70.632 108.19024 
L 69.197143 117.919172 
L 67.762286 113.614497 
L 66.327429 114.648704 
L 64.892571 117.536583 
L 63.457714 118.190266 
L 62.022857 119.169251 
L 60.588 114.255054 
L 59.153143 124.881474 
L 57.718286 132.305732 
L 56.283429 132.800846 
L 54.848571 134.30882 
L 53.413714 130.100063 
L 51.978857 154.057968 
L 50.544 144.716326 
L 49.109143 152.459206 
L 47.674286 140.45697 
L 46.239429 146.311098 
L 44.804571 164.670333 
L 43.369714 144.501199 
L 41.934857 157.177138 
L 40.5 144.799497 
z
" clip-path="url(#p03613b5645)" style="fill: #1f77b4; fill-opacity: 0.3"/>
   </g>
   <g id="PolyCollection_2">
    <path d="M 40.5 158.447264 
L 40.5 202.056736 
L 41.934857 190.317165 
L 43.369714 180.316853 
L 44.804571 160.570647 
L 46.239429 167.359704 
L 47.674286 167.383509 
L 49.109143 172.522316 
L 50.544 173.42855 
L 51.978857 134.578756 
L 53.413714 161.670207 
L 54.848571 161.077112 
L 56.283429 163.554904 
L 57.718286 147.781296 
L 59.153143 162.249624 
L 60.588 151.898396 
L 62.022857 141.921746 
L 63.457714 142.886487 
L 64.892571 148.57238 
L 66.327429 145.26257 
L 67.762286 150.02338 
L 69.197143 132.690996 
L 70.632 138.894277 
L 72.066857 147.194617 
L 73.501714 130.004549 
L 74.936571 133.832076 
L 76.371429 133.595352 
L 77.806286 134.441532 
L 79.241143 128.302966 
L 80.676 131.267704 
L 82.110857 138.410062 
L 83.545714 131.793524 
L 84.980571 130.296784 
L 86.415429 122.769926 
L 87.850286 130.244539 
L 89.285143 127.880899 
L 90.72 117.968326 
L 92.154857 133.159468 
L 93.589714 135.106312 
L 95.024571 132.026479 
L 96.459429 126.566142 
L 97.894286 123.825962 
L 99.329143 126.059528 
L 100.764 119.20157 
L 102.198857 129.211524 
L 103.633714 122.617382 
L 105.068571 119.676587 
L 106.503429 108.074352 
L 107.938286 119.460185 
L 109.373143 121.68407 
L 110.808 112.056993 
L 112.242857 106.845524 
L 113.677714 123.673249 
L 115.112571 104.032823 
L 116.547429 118.980124 
L 117.982286 120.367222 
L 119.417143 118.288222 
L 120.852 108.944124 
L 122.286857 116.267379 
L 123.721714 122.162187 
L 125.156571 117.812044 
L 126.591429 109.272962 
L 128.026286 113.174973 
L 129.461143 110.247034 
L 130.896 117.99808 
L 132.330857 116.600448 
L 133.765714 109.566 
L 135.200571 116.783033 
L 136.635429 122.008684 
L 138.070286 115.932268 
L 139.505143 121.989931 
L 140.94 116.409034 
L 142.374857 112.304785 
L 143.809714 122.769926 
L 145.244571 120.215778 
L 146.679429 125.657443 
L 148.114286 119.676587 
L 149.549143 123.853349 
L 150.984 122.091846 
L 152.418857 120.597689 
L 153.853714 133.633488 
L 155.288571 107.311274 
L 156.723429 114.540208 
L 158.158286 108.341043 
L 159.593143 110.431932 
L 161.028 111.850862 
L 162.462857 120.902663 
L 163.897714 131.738233 
L 165.332571 122.889121 
L 166.767429 112.499043 
L 168.202286 121.374619 
L 169.637143 125.501836 
L 171.072 123.483119 
L 172.506857 132.842801 
L 173.941714 112.442448 
L 175.376571 103.735222 
L 176.811429 115.326494 
L 178.246286 104.149465 
L 179.681143 103.398298 
L 181.116 100.94735 
L 182.550857 114.313479 
L 183.985714 126.890883 
L 185.420571 119.368436 
L 186.855429 103.271162 
L 188.290286 125.83799 
L 189.725143 113.771128 
L 191.16 100.898966 
L 192.594857 126.701308 
L 194.029714 118.756244 
L 195.464571 112.059257 
L 196.899429 113.328806 
L 198.334286 100.28894 
L 199.769143 118.19312 
L 201.204 114.064146 
L 202.638857 109.029109 
L 204.073714 113.328806 
L 205.508571 108.67757 
L 206.943429 108.46531 
L 208.378286 108.446528 
L 209.813143 100.28894 
L 211.248 106.24947 
L 212.682857 103.982847 
L 214.117714 108.995129 
L 215.552571 103.128703 
L 216.987429 100.313834 
L 218.422286 115.803 
L 219.857143 95.636016 
L 221.292 112.637152 
L 222.726857 100.712906 
L 224.161714 107.929983 
L 225.596571 110.752515 
L 227.031429 101.285383 
L 228.466286 102.904534 
L 229.901143 102.76915 
L 231.336 103.930478 
L 232.770857 107.443612 
L 234.205714 112.799296 
L 235.640571 120.190591 
L 237.075429 106.031016 
L 238.510286 120.9203 
L 239.945143 94.406138 
L 241.38 120.761758 
L 242.814857 101.407487 
L 244.249714 102.436515 
L 245.684571 96.827932 
L 247.119429 103.028906 
L 248.554286 107.954671 
L 249.989143 103.384476 
L 251.424 104.962249 
L 252.858857 109.823876 
L 254.293714 110.852109 
L 255.728571 113.16415 
L 257.163429 100.900405 
L 258.598286 127.690302 
L 260.033143 108.617062 
L 261.468 111.802487 
L 262.902857 122.425605 
L 264.337714 93.957242 
L 265.772571 126.962026 
L 267.207429 96.268269 
L 268.642286 78.0243 
L 270.077143 89.9242 
L 271.512 109.977723 
L 272.946857 82.539 
L 274.381714 105.408 
L 275.816571 113.724 
L 275.816571 113.724 
L 275.816571 113.724 
L 274.381714 105.408 
L 272.946857 70.065 
L 271.512 67.574277 
L 270.077143 82.0838 
L 268.642286 66.2637 
L 267.207429 76.531731 
L 265.772571 88.011974 
L 264.337714 77.357758 
L 262.902857 86.311395 
L 261.468 92.776513 
L 260.033143 87.645938 
L 258.598286 91.441698 
L 257.163429 91.204595 
L 255.728571 99.73085 
L 254.293714 85.410891 
L 252.858857 76.044124 
L 251.424 82.984751 
L 249.989143 88.720524 
L 248.554286 82.071329 
L 247.119429 74.523094 
L 245.684571 80.724068 
L 244.249714 87.589485 
L 242.814857 82.381513 
L 241.38 98.370242 
L 239.945143 78.987862 
L 238.510286 94.0537 
L 237.075429 90.231984 
L 235.640571 82.309409 
L 234.205714 93.858704 
L 232.770857 82.582388 
L 231.336 84.016522 
L 229.901143 89.33585 
L 228.466286 82.963466 
L 227.031429 78.345617 
L 225.596571 95.905485 
L 224.161714 90.412017 
L 222.726857 85.155094 
L 221.292 89.862848 
L 219.857143 79.836984 
L 218.422286 95.013 
L 216.987429 82.782166 
L 215.552571 86.065697 
L 214.117714 86.852071 
L 212.682857 84.153153 
L 211.248 89.44653 
L 209.813143 80.28706 
L 208.378286 88.761472 
L 206.943429 82.69469 
L 205.508571 83.99443 
L 204.073714 88.415194 
L 202.638857 91.202891 
L 201.204 87.679854 
L 199.769143 92.62288 
L 198.334286 80.28706 
L 196.899429 88.415194 
L 195.464571 97.244743 
L 194.029714 86.011756 
L 192.594857 103.770692 
L 191.16 79.677034 
L 189.725143 95.532872 
L 188.290286 94.05001 
L 186.855429 87.888838 
L 185.420571 91.447564 
L 183.985714 92.997117 
L 182.550857 90.454521 
L 181.116 78.11665 
L 179.681143 83.225702 
L 178.246286 82.474535 
L 176.811429 83.975044 
L 175.376571 80.053778 
L 173.941714 85.899552 
L 172.506857 111.237199 
L 171.072 90.451381 
L 169.637143 94.669664 
L 168.202286 98.796881 
L 166.767429 87.921957 
L 165.332571 101.440379 
L 163.897714 99.867767 
L 162.462857 96.150337 
L 161.028 90.649138 
L 159.593143 86.870568 
L 158.158286 83.763957 
L 156.723429 94.196792 
L 155.288571 95.188726 
L 153.853714 106.288512 
L 152.418857 88.139311 
L 150.984 101.198154 
L 149.549143 100.476151 
L 148.114286 92.178913 
L 146.679429 99.711557 
L 145.244571 93.718722 
L 143.809714 94.283074 
L 142.374857 100.590215 
L 140.94 94.406966 
L 139.505143 95.063069 
L 138.070286 90.725732 
L 136.635429 94.004816 
L 135.200571 92.993467 
L 133.765714 84.618 
L 132.330857 90.057552 
L 130.896 102.17342 
L 129.461143 87.055466 
L 128.026286 92.443527 
L 126.591429 82.832038 
L 125.156571 89.885456 
L 123.721714 93.851313 
L 122.286857 95.588121 
L 120.852 85.239876 
L 119.417143 94.606778 
L 117.982286 96.685778 
L 116.547429 97.033376 
L 115.112571 81.835177 
L 113.677714 101.695751 
L 112.242857 84.219976 
L 110.808 91.482507 
L 109.373143 92.25043 
L 107.938286 94.474315 
L 106.503429 84.030648 
L 105.068571 92.178913 
L 103.633714 94.435618 
L 102.198857 105.512976 
L 100.764 95.77243 
L 99.329143 100.348972 
L 97.894286 97.385038 
L 96.459429 94.644858 
L 95.024571 113.093021 
L 93.589714 108.973688 
L 92.154857 102.604532 
L 90.72 92.847674 
L 89.285143 103.725101 
L 87.850286 98.242961 
L 86.415429 94.283074 
L 84.980571 107.546216 
L 83.545714 109.167976 
L 82.110857 105.669938 
L 80.676 107.614796 
L 79.241143 97.066034 
L 77.806286 115.875468 
L 76.371429 109.445148 
L 74.936571 104.010924 
L 73.501714 105.759451 
L 72.066857 113.517383 
L 70.632 115.580723 
L 69.197143 97.875504 
L 67.762286 120.04412 
L 66.327429 111.29143 
L 64.892571 116.29762 
L 63.457714 110.549013 
L 62.022857 103.197754 
L 60.588 129.603604 
L 59.153143 122.370876 
L 57.718286 118.128204 
L 56.283429 130.421096 
L 54.848571 123.543388 
L 53.413714 138.542793 
L 51.978857 114.698744 
L 50.544 131.98195 
L 49.109143 132.888184 
L 47.674286 134.908491 
L 46.239429 135.971796 
L 44.804571 129.247353 
L 43.369714 143.804647 
L 41.934857 142.120335 
L 40.5 158.447264 
z
" clip-path="url(#p03613b5645)" style="fill: #ff7f0e; fill-opacity: 0.3"/>
   </g>
   <g id="matplotlib.axis_1">
    <g id="xtick_1">
     <g id="line2d_1">
      <path d="M 40.5 288.36 
L 40.5 38.88 
" clip-path="url(#p03613b5645)" style="fill: none; stroke: #b0b0b0; stroke-width: 0.8; stroke-linecap: square"/>
     </g>
     <g id="line2d_2">
      <defs>
       <path id="m05642661b4" d="M 0 0 
L 0 3.5 
" style="stroke: #000000; stroke-width: 0.8"/>
      </defs>
      <g>
       <use xlink:href="#m05642661b4" x="40.5" y="288.36" style="stroke: #000000; stroke-width: 0.8"/>
      </g>
     </g>
     <g id="text_1">
      <!-- 0 -->
      <g transform="translate(37.31875 302.958438) scale(0.1 -0.1)">
       <defs>
        <path id="DejaVuSans-30" d="M 2034 4250 
Q 1547 4250 1301 3770 
Q 1056 3291 1056 2328 
Q 1056 1369 1301 889 
Q 1547 409 2034 409 
Q 2525 409 2770 889 
Q 3016 1369 3016 2328 
Q 3016 3291 2770 3770 
Q 2525 4250 2034 4250 
z
M 2034 4750 
Q 2819 4750 3233 4129 
Q 3647 3509 3647 2328 
Q 3647 1150 3233 529 
Q 2819 -91 2034 -91 
Q 1250 -91 836 529 
Q 422 1150 422 2328 
Q 422 3509 836 4129 
Q 1250 4750 2034 4750 
z
" transform="scale(0.015625)"/>
       </defs>
       <use xlink:href="#DejaVuSans-30"/>
      </g>
     </g>
    </g>
    <g id="xtick_2">
     <g id="line2d_3">
      <path d="M 112.242857 288.36 
L 112.242857 38.88 
" clip-path="url(#p03613b5645)" style="fill: none; stroke: #b0b0b0; stroke-width: 0.8; stroke-linecap: square"/>
     </g>
     <g id="line2d_4">
      <g>
       <use xlink:href="#m05642661b4" x="112.242857" y="288.36" style="stroke: #000000; stroke-width: 0.8"/>
      </g>
     </g>
     <g id="text_2">
      <!-- 50 -->
      <g transform="translate(105.880357 302.958438) scale(0.1 -0.1)">
       <defs>
        <path id="DejaVuSans-35" d="M 691 4666 
L 3169 4666 
L 3169 4134 
L 1269 4134 
L 1269 2991 
Q 1406 3038 1543 3061 
Q 1681 3084 1819 3084 
Q 2600 3084 3056 2656 
Q 3513 2228 3513 1497 
Q 3513 744 3044 326 
Q 2575 -91 1722 -91 
Q 1428 -91 1123 -41 
Q 819 9 494 109 
L 494 744 
Q 775 591 1075 516 
Q 1375 441 1709 441 
Q 2250 441 2565 725 
Q 2881 1009 2881 1497 
Q 2881 1984 2565 2268 
Q 2250 2553 1709 2553 
Q 1456 2553 1204 2497 
Q 953 2441 691 2322 
L 691 4666 
z
" transform="scale(0.015625)"/>
       </defs>
       <use xlink:href="#DejaVuSans-35"/>
       <use xlink:href="#DejaVuSans-30" x="63.623047"/>
      </g>
     </g>
    </g>
    <g id="xtick_3">
     <g id="line2d_5">
      <path d="M 183.985714 288.36 
L 183.985714 38.88 
" clip-path="url(#p03613b5645)" style="fill: none; stroke: #b0b0b0; stroke-width: 0.8; stroke-linecap: square"/>
     </g>
     <g id="line2d_6">
      <g>
       <use xlink:href="#m05642661b4" x="183.985714" y="288.36" style="stroke: #000000; stroke-width: 0.8"/>
      </g>
     </g>
     <g id="text_3">
      <!-- 100 -->
      <g transform="translate(174.441964 302.958438) scale(0.1 -0.1)">
       <defs>
        <path id="DejaVuSans-31" d="M 794 531 
L 1825 531 
L 1825 4091 
L 703 3866 
L 703 4441 
L 1819 4666 
L 2450 4666 
L 2450 531 
L 3481 531 
L 3481 0 
L 794 0 
L 794 531 
z
" transform="scale(0.015625)"/>
       </defs>
       <use xlink:href="#DejaVuSans-31"/>
       <use xlink:href="#DejaVuSans-30" x="63.623047"/>
       <use xlink:href="#DejaVuSans-30" x="127.246094"/>
      </g>
     </g>
    </g>
    <g id="xtick_4">
     <g id="line2d_7">
      <path d="M 255.728571 288.36 
L 255.728571 38.88 
" clip-path="url(#p03613b5645)" style="fill: none; stroke: #b0b0b0; stroke-width: 0.8; stroke-linecap: square"/>
     </g>
     <g id="line2d_8">
      <g>
       <use xlink:href="#m05642661b4" x="255.728571" y="288.36" style="stroke: #000000; stroke-width: 0.8"/>
      </g>
     </g>
     <g id="text_4">
      <!-- 150 -->
      <g transform="translate(246.184821 302.958438) scale(0.1 -0.1)">
       <use xlink:href="#DejaVuSans-31"/>
       <use xlink:href="#DejaVuSans-35" x="63.623047"/>
       <use xlink:href="#DejaVuSans-30" x="127.246094"/>
      </g>
     </g>
    </g>
    <g id="text_5">
     <!-- Epochs (= 30 training games + 30 testing games) -->
     <g transform="translate(40.132812 316.636563) scale(0.1 -0.1)">
      <defs>
       <path id="DejaVuSans-45" d="M 628 4666 
L 3578 4666 
L 3578 4134 
L 1259 4134 
L 1259 2753 
L 3481 2753 
L 3481 2222 
L 1259 2222 
L 1259 531 
L 3634 531 
L 3634 0 
L 628 0 
L 628 4666 
z
" transform="scale(0.015625)"/>
       <path id="DejaVuSans-70" d="M 1159 525 
L 1159 -1331 
L 581 -1331 
L 581 3500 
L 1159 3500 
L 1159 2969 
Q 1341 3281 1617 3432 
Q 1894 3584 2278 3584 
Q 2916 3584 3314 3078 
Q 3713 2572 3713 1747 
Q 3713 922 3314 415 
Q 2916 -91 2278 -91 
Q 1894 -91 1617 61 
Q 1341 213 1159 525 
z
M 3116 1747 
Q 3116 2381 2855 2742 
Q 2594 3103 2138 3103 
Q 1681 3103 1420 2742 
Q 1159 2381 1159 1747 
Q 1159 1113 1420 752 
Q 1681 391 2138 391 
Q 2594 391 2855 752 
Q 3116 1113 3116 1747 
z
" transform="scale(0.015625)"/>
       <path id="DejaVuSans-6f" d="M 1959 3097 
Q 1497 3097 1228 2736 
Q 959 2375 959 1747 
Q 959 1119 1226 758 
Q 1494 397 1959 397 
Q 2419 397 2687 759 
Q 2956 1122 2956 1747 
Q 2956 2369 2687 2733 
Q 2419 3097 1959 3097 
z
M 1959 3584 
Q 2709 3584 3137 3096 
Q 3566 2609 3566 1747 
Q 3566 888 3137 398 
Q 2709 -91 1959 -91 
Q 1206 -91 779 398 
Q 353 888 353 1747 
Q 353 2609 779 3096 
Q 1206 3584 1959 3584 
z
" transform="scale(0.015625)"/>
       <path id="DejaVuSans-63" d="M 3122 3366 
L 3122 2828 
Q 2878 2963 2633 3030 
Q 2388 3097 2138 3097 
Q 1578 3097 1268 2742 
Q 959 2388 959 1747 
Q 959 1106 1268 751 
Q 1578 397 2138 397 
Q 2388 397 2633 464 
Q 2878 531 3122 666 
L 3122 134 
Q 2881 22 2623 -34 
Q 2366 -91 2075 -91 
Q 1284 -91 818 406 
Q 353 903 353 1747 
Q 353 2603 823 3093 
Q 1294 3584 2113 3584 
Q 2378 3584 2631 3529 
Q 2884 3475 3122 3366 
z
" transform="scale(0.015625)"/>
       <path id="DejaVuSans-68" d="M 3513 2113 
L 3513 0 
L 2938 0 
L 2938 2094 
Q 2938 2591 2744 2837 
Q 2550 3084 2163 3084 
Q 1697 3084 1428 2787 
Q 1159 2491 1159 1978 
L 1159 0 
L 581 0 
L 581 4863 
L 1159 4863 
L 1159 2956 
Q 1366 3272 1645 3428 
Q 1925 3584 2291 3584 
Q 2894 3584 3203 3211 
Q 3513 2838 3513 2113 
z
" transform="scale(0.015625)"/>
       <path id="DejaVuSans-73" d="M 2834 3397 
L 2834 2853 
Q 2591 2978 2328 3040 
Q 2066 3103 1784 3103 
Q 1356 3103 1142 2972 
Q 928 2841 928 2578 
Q 928 2378 1081 2264 
Q 1234 2150 1697 2047 
L 1894 2003 
Q 2506 1872 2764 1633 
Q 3022 1394 3022 966 
Q 3022 478 2636 193 
Q 2250 -91 1575 -91 
Q 1294 -91 989 -36 
Q 684 19 347 128 
L 347 722 
Q 666 556 975 473 
Q 1284 391 1588 391 
Q 1994 391 2212 530 
Q 2431 669 2431 922 
Q 2431 1156 2273 1281 
Q 2116 1406 1581 1522 
L 1381 1569 
Q 847 1681 609 1914 
Q 372 2147 372 2553 
Q 372 3047 722 3315 
Q 1072 3584 1716 3584 
Q 2034 3584 2315 3537 
Q 2597 3491 2834 3397 
z
" transform="scale(0.015625)"/>
       <path id="DejaVuSans-20" transform="scale(0.015625)"/>
       <path id="DejaVuSans-28" d="M 1984 4856 
Q 1566 4138 1362 3434 
Q 1159 2731 1159 2009 
Q 1159 1288 1364 580 
Q 1569 -128 1984 -844 
L 1484 -844 
Q 1016 -109 783 600 
Q 550 1309 550 2009 
Q 550 2706 781 3412 
Q 1013 4119 1484 4856 
L 1984 4856 
z
" transform="scale(0.015625)"/>
       <path id="DejaVuSans-3d" d="M 678 2906 
L 4684 2906 
L 4684 2381 
L 678 2381 
L 678 2906 
z
M 678 1631 
L 4684 1631 
L 4684 1100 
L 678 1100 
L 678 1631 
z
" transform="scale(0.015625)"/>
       <path id="DejaVuSans-33" d="M 2597 2516 
Q 3050 2419 3304 2112 
Q 3559 1806 3559 1356 
Q 3559 666 3084 287 
Q 2609 -91 1734 -91 
Q 1441 -91 1130 -33 
Q 819 25 488 141 
L 488 750 
Q 750 597 1062 519 
Q 1375 441 1716 441 
Q 2309 441 2620 675 
Q 2931 909 2931 1356 
Q 2931 1769 2642 2001 
Q 2353 2234 1838 2234 
L 1294 2234 
L 1294 2753 
L 1863 2753 
Q 2328 2753 2575 2939 
Q 2822 3125 2822 3475 
Q 2822 3834 2567 4026 
Q 2313 4219 1838 4219 
Q 1578 4219 1281 4162 
Q 984 4106 628 3988 
L 628 4550 
Q 988 4650 1302 4700 
Q 1616 4750 1894 4750 
Q 2613 4750 3031 4423 
Q 3450 4097 3450 3541 
Q 3450 3153 3228 2886 
Q 3006 2619 2597 2516 
z
" transform="scale(0.015625)"/>
       <path id="DejaVuSans-74" d="M 1172 4494 
L 1172 3500 
L 2356 3500 
L 2356 3053 
L 1172 3053 
L 1172 1153 
Q 1172 725 1289 603 
Q 1406 481 1766 481 
L 2356 481 
L 2356 0 
L 1766 0 
Q 1100 0 847 248 
Q 594 497 594 1153 
L 594 3053 
L 172 3053 
L 172 3500 
L 594 3500 
L 594 4494 
L 1172 4494 
z
" transform="scale(0.015625)"/>
       <path id="DejaVuSans-72" d="M 2631 2963 
Q 2534 3019 2420 3045 
Q 2306 3072 2169 3072 
Q 1681 3072 1420 2755 
Q 1159 2438 1159 1844 
L 1159 0 
L 581 0 
L 581 3500 
L 1159 3500 
L 1159 2956 
Q 1341 3275 1631 3429 
Q 1922 3584 2338 3584 
Q 2397 3584 2469 3576 
Q 2541 3569 2628 3553 
L 2631 2963 
z
" transform="scale(0.015625)"/>
       <path id="DejaVuSans-61" d="M 2194 1759 
Q 1497 1759 1228 1600 
Q 959 1441 959 1056 
Q 959 750 1161 570 
Q 1363 391 1709 391 
Q 2188 391 2477 730 
Q 2766 1069 2766 1631 
L 2766 1759 
L 2194 1759 
z
M 3341 1997 
L 3341 0 
L 2766 0 
L 2766 531 
Q 2569 213 2275 61 
Q 1981 -91 1556 -91 
Q 1019 -91 701 211 
Q 384 513 384 1019 
Q 384 1609 779 1909 
Q 1175 2209 1959 2209 
L 2766 2209 
L 2766 2266 
Q 2766 2663 2505 2880 
Q 2244 3097 1772 3097 
Q 1472 3097 1187 3025 
Q 903 2953 641 2809 
L 641 3341 
Q 956 3463 1253 3523 
Q 1550 3584 1831 3584 
Q 2591 3584 2966 3190 
Q 3341 2797 3341 1997 
z
" transform="scale(0.015625)"/>
       <path id="DejaVuSans-69" d="M 603 3500 
L 1178 3500 
L 1178 0 
L 603 0 
L 603 3500 
z
M 603 4863 
L 1178 4863 
L 1178 4134 
L 603 4134 
L 603 4863 
z
" transform="scale(0.015625)"/>
       <path id="DejaVuSans-6e" d="M 3513 2113 
L 3513 0 
L 2938 0 
L 2938 2094 
Q 2938 2591 2744 2837 
Q 2550 3084 2163 3084 
Q 1697 3084 1428 2787 
Q 1159 2491 1159 1978 
L 1159 0 
L 581 0 
L 581 3500 
L 1159 3500 
L 1159 2956 
Q 1366 3272 1645 3428 
Q 1925 3584 2291 3584 
Q 2894 3584 3203 3211 
Q 3513 2838 3513 2113 
z
" transform="scale(0.015625)"/>
       <path id="DejaVuSans-67" d="M 2906 1791 
Q 2906 2416 2648 2759 
Q 2391 3103 1925 3103 
Q 1463 3103 1205 2759 
Q 947 2416 947 1791 
Q 947 1169 1205 825 
Q 1463 481 1925 481 
Q 2391 481 2648 825 
Q 2906 1169 2906 1791 
z
M 3481 434 
Q 3481 -459 3084 -895 
Q 2688 -1331 1869 -1331 
Q 1566 -1331 1297 -1286 
Q 1028 -1241 775 -1147 
L 775 -588 
Q 1028 -725 1275 -790 
Q 1522 -856 1778 -856 
Q 2344 -856 2625 -561 
Q 2906 -266 2906 331 
L 2906 616 
Q 2728 306 2450 153 
Q 2172 0 1784 0 
Q 1141 0 747 490 
Q 353 981 353 1791 
Q 353 2603 747 3093 
Q 1141 3584 1784 3584 
Q 2172 3584 2450 3431 
Q 2728 3278 2906 2969 
L 2906 3500 
L 3481 3500 
L 3481 434 
z
" transform="scale(0.015625)"/>
       <path id="DejaVuSans-6d" d="M 3328 2828 
Q 3544 3216 3844 3400 
Q 4144 3584 4550 3584 
Q 5097 3584 5394 3201 
Q 5691 2819 5691 2113 
L 5691 0 
L 5113 0 
L 5113 2094 
Q 5113 2597 4934 2840 
Q 4756 3084 4391 3084 
Q 3944 3084 3684 2787 
Q 3425 2491 3425 1978 
L 3425 0 
L 2847 0 
L 2847 2094 
Q 2847 2600 2669 2842 
Q 2491 3084 2119 3084 
Q 1678 3084 1418 2786 
Q 1159 2488 1159 1978 
L 1159 0 
L 581 0 
L 581 3500 
L 1159 3500 
L 1159 2956 
Q 1356 3278 1631 3431 
Q 1906 3584 2284 3584 
Q 2666 3584 2933 3390 
Q 3200 3197 3328 2828 
z
" transform="scale(0.015625)"/>
       <path id="DejaVuSans-65" d="M 3597 1894 
L 3597 1613 
L 953 1613 
Q 991 1019 1311 708 
Q 1631 397 2203 397 
Q 2534 397 2845 478 
Q 3156 559 3463 722 
L 3463 178 
Q 3153 47 2828 -22 
Q 2503 -91 2169 -91 
Q 1331 -91 842 396 
Q 353 884 353 1716 
Q 353 2575 817 3079 
Q 1281 3584 2069 3584 
Q 2775 3584 3186 3129 
Q 3597 2675 3597 1894 
z
M 3022 2063 
Q 3016 2534 2758 2815 
Q 2500 3097 2075 3097 
Q 1594 3097 1305 2825 
Q 1016 2553 972 2059 
L 3022 2063 
z
" transform="scale(0.015625)"/>
       <path id="DejaVuSans-2b" d="M 2944 4013 
L 2944 2272 
L 4684 2272 
L 4684 1741 
L 2944 1741 
L 2944 0 
L 2419 0 
L 2419 1741 
L 678 1741 
L 678 2272 
L 2419 2272 
L 2419 4013 
L 2944 4013 
z
" transform="scale(0.015625)"/>
       <path id="DejaVuSans-29" d="M 513 4856 
L 1013 4856 
Q 1481 4119 1714 3412 
Q 1947 2706 1947 2009 
Q 1947 1309 1714 600 
Q 1481 -109 1013 -844 
L 513 -844 
Q 928 -128 1133 580 
Q 1338 1288 1338 2009 
Q 1338 2731 1133 3434 
Q 928 4138 513 4856 
z
" transform="scale(0.015625)"/>
      </defs>
      <use xlink:href="#DejaVuSans-45"/>
      <use xlink:href="#DejaVuSans-70" x="63.183594"/>
      <use xlink:href="#DejaVuSans-6f" x="126.660156"/>
      <use xlink:href="#DejaVuSans-63" x="187.841797"/>
      <use xlink:href="#DejaVuSans-68" x="242.822266"/>
      <use xlink:href="#DejaVuSans-73" x="306.201172"/>
      <use xlink:href="#DejaVuSans-20" x="358.300781"/>
      <use xlink:href="#DejaVuSans-28" x="390.087891"/>
      <use xlink:href="#DejaVuSans-3d" x="429.101562"/>
      <use xlink:href="#DejaVuSans-20" x="512.890625"/>
      <use xlink:href="#DejaVuSans-33" x="544.677734"/>
      <use xlink:href="#DejaVuSans-30" x="608.300781"/>
      <use xlink:href="#DejaVuSans-20" x="671.923828"/>
      <use xlink:href="#DejaVuSans-74" x="703.710938"/>
      <use xlink:href="#DejaVuSans-72" x="742.919922"/>
      <use xlink:href="#DejaVuSans-61" x="784.033203"/>
      <use xlink:href="#DejaVuSans-69" x="845.3125"/>
      <use xlink:href="#DejaVuSans-6e" x="873.095703"/>
      <use xlink:href="#DejaVuSans-69" x="936.474609"/>
      <use xlink:href="#DejaVuSans-6e" x="964.257812"/>
      <use xlink:href="#DejaVuSans-67" x="1027.636719"/>
      <use xlink:href="#DejaVuSans-20" x="1091.113281"/>
      <use xlink:href="#DejaVuSans-67" x="1122.900391"/>
      <use xlink:href="#DejaVuSans-61" x="1186.376953"/>
      <use xlink:href="#DejaVuSans-6d" x="1247.65625"/>
      <use xlink:href="#DejaVuSans-65" x="1345.068359"/>
      <use xlink:href="#DejaVuSans-73" x="1406.591797"/>
      <use xlink:href="#DejaVuSans-20" x="1458.691406"/>
      <use xlink:href="#DejaVuSans-2b" x="1490.478516"/>
      <use xlink:href="#DejaVuSans-20" x="1574.267578"/>
      <use xlink:href="#DejaVuSans-33" x="1606.054688"/>
      <use xlink:href="#DejaVuSans-30" x="1669.677734"/>
      <use xlink:href="#DejaVuSans-20" x="1733.300781"/>
      <use xlink:href="#DejaVuSans-74" x="1765.087891"/>
      <use xlink:href="#DejaVuSans-65" x="1804.296875"/>
      <use xlink:href="#DejaVuSans-73" x="1865.820312"/>
      <use xlink:href="#DejaVuSans-74" x="1917.919922"/>
      <use xlink:href="#DejaVuSans-69" x="1957.128906"/>
      <use xlink:href="#DejaVuSans-6e" x="1984.912109"/>
      <use xlink:href="#DejaVuSans-67" x="2048.291016"/>
      <use xlink:href="#DejaVuSans-20" x="2111.767578"/>
      <use xlink:href="#DejaVuSans-67" x="2143.554688"/>
      <use xlink:href="#DejaVuSans-61" x="2207.03125"/>
      <use xlink:href="#DejaVuSans-6d" x="2268.310547"/>
      <use xlink:href="#DejaVuSans-65" x="2365.722656"/>
      <use xlink:href="#DejaVuSans-73" x="2427.246094"/>
      <use xlink:href="#DejaVuSans-29" x="2479.345703"/>
     </g>
    </g>
   </g>
   <g id="matplotlib.axis_2">
    <g id="ytick_1">
     <g id="line2d_9">
      <path d="M 40.5 288.36 
L 291.6 288.36 
" clip-path="url(#p03613b5645)" style="fill: none; stroke: #b0b0b0; stroke-width: 0.8; stroke-linecap: square"/>
     </g>
     <g id="line2d_10">
      <defs>
       <path id="m6ea1e591b9" d="M 0 0 
L -3.5 0 
" style="stroke: #000000; stroke-width: 0.8"/>
      </defs>
      <g>
       <use xlink:href="#m6ea1e591b9" x="40.5" y="288.36" style="stroke: #000000; stroke-width: 0.8"/>
      </g>
     </g>
     <g id="text_6">
      <!-- 0.00 -->
      <g transform="translate(11.234375 292.159219) scale(0.1 -0.1)">
       <defs>
        <path id="DejaVuSans-2e" d="M 684 794 
L 1344 794 
L 1344 0 
L 684 0 
L 684 794 
z
" transform="scale(0.015625)"/>
       </defs>
       <use xlink:href="#DejaVuSans-30"/>
       <use xlink:href="#DejaVuSans-2e" x="63.623047"/>
       <use xlink:href="#DejaVuSans-30" x="95.410156"/>
       <use xlink:href="#DejaVuSans-30" x="159.033203"/>
      </g>
     </g>
    </g>
    <g id="ytick_2">
     <g id="line2d_11">
      <path d="M 40.5 225.99 
L 291.6 225.99 
" clip-path="url(#p03613b5645)" style="fill: none; stroke: #b0b0b0; stroke-width: 0.8; stroke-linecap: square"/>
     </g>
     <g id="line2d_12">
      <g>
       <use xlink:href="#m6ea1e591b9" x="40.5" y="225.99" style="stroke: #000000; stroke-width: 0.8"/>
      </g>
     </g>
     <g id="text_7">
      <!-- 0.25 -->
      <g transform="translate(11.234375 229.789219) scale(0.1 -0.1)">
       <defs>
        <path id="DejaVuSans-32" d="M 1228 531 
L 3431 531 
L 3431 0 
L 469 0 
L 469 531 
Q 828 903 1448 1529 
Q 2069 2156 2228 2338 
Q 2531 2678 2651 2914 
Q 2772 3150 2772 3378 
Q 2772 3750 2511 3984 
Q 2250 4219 1831 4219 
Q 1534 4219 1204 4116 
Q 875 4013 500 3803 
L 500 4441 
Q 881 4594 1212 4672 
Q 1544 4750 1819 4750 
Q 2544 4750 2975 4387 
Q 3406 4025 3406 3419 
Q 3406 3131 3298 2873 
Q 3191 2616 2906 2266 
Q 2828 2175 2409 1742 
Q 1991 1309 1228 531 
z
" transform="scale(0.015625)"/>
       </defs>
       <use xlink:href="#DejaVuSans-30"/>
       <use xlink:href="#DejaVuSans-2e" x="63.623047"/>
       <use xlink:href="#DejaVuSans-32" x="95.410156"/>
       <use xlink:href="#DejaVuSans-35" x="159.033203"/>
      </g>
     </g>
    </g>
    <g id="ytick_3">
     <g id="line2d_13">
      <path d="M 40.5 163.62 
L 291.6 163.62 
" clip-path="url(#p03613b5645)" style="fill: none; stroke: #b0b0b0; stroke-width: 0.8; stroke-linecap: square"/>
     </g>
     <g id="line2d_14">
      <g>
       <use xlink:href="#m6ea1e591b9" x="40.5" y="163.62" style="stroke: #000000; stroke-width: 0.8"/>
      </g>
     </g>
     <g id="text_8">
      <!-- 0.50 -->
      <g transform="translate(11.234375 167.419219) scale(0.1 -0.1)">
       <use xlink:href="#DejaVuSans-30"/>
       <use xlink:href="#DejaVuSans-2e" x="63.623047"/>
       <use xlink:href="#DejaVuSans-35" x="95.410156"/>
       <use xlink:href="#DejaVuSans-30" x="159.033203"/>
      </g>
     </g>
    </g>
    <g id="ytick_4">
     <g id="line2d_15">
      <path d="M 40.5 101.25 
L 291.6 101.25 
" clip-path="url(#p03613b5645)" style="fill: none; stroke: #b0b0b0; stroke-width: 0.8; stroke-linecap: square"/>
     </g>
     <g id="line2d_16">
      <g>
       <use xlink:href="#m6ea1e591b9" x="40.5" y="101.25" style="stroke: #000000; stroke-width: 0.8"/>
      </g>
     </g>
     <g id="text_9">
      <!-- 0.75 -->
      <g transform="translate(11.234375 105.049219) scale(0.1 -0.1)">
       <defs>
        <path id="DejaVuSans-37" d="M 525 4666 
L 3525 4666 
L 3525 4397 
L 1831 0 
L 1172 0 
L 2766 4134 
L 525 4134 
L 525 4666 
z
" transform="scale(0.015625)"/>
       </defs>
       <use xlink:href="#DejaVuSans-30"/>
       <use xlink:href="#DejaVuSans-2e" x="63.623047"/>
       <use xlink:href="#DejaVuSans-37" x="95.410156"/>
       <use xlink:href="#DejaVuSans-35" x="159.033203"/>
      </g>
     </g>
    </g>
    <g id="ytick_5">
     <g id="line2d_17">
      <path d="M 40.5 38.88 
L 291.6 38.88 
" clip-path="url(#p03613b5645)" style="fill: none; stroke: #b0b0b0; stroke-width: 0.8; stroke-linecap: square"/>
     </g>
     <g id="line2d_18">
      <g>
       <use xlink:href="#m6ea1e591b9" x="40.5" y="38.88" style="stroke: #000000; stroke-width: 0.8"/>
      </g>
     </g>
     <g id="text_10">
      <!-- 1.00 -->
      <g transform="translate(11.234375 42.679219) scale(0.1 -0.1)">
       <use xlink:href="#DejaVuSans-31"/>
       <use xlink:href="#DejaVuSans-2e" x="63.623047"/>
       <use xlink:href="#DejaVuSans-30" x="95.410156"/>
       <use xlink:href="#DejaVuSans-30" x="159.033203"/>
      </g>
     </g>
    </g>
    <g id="text_11">
     <!-- Portion won (mean of 8 runs ± 0.5 $\cdot$ SD) -->
     <g transform="translate(5.154687 263.82) rotate(-90) scale(0.1 -0.1)">
      <defs>
       <path id="DejaVuSans-50" d="M 1259 4147 
L 1259 2394 
L 2053 2394 
Q 2494 2394 2734 2622 
Q 2975 2850 2975 3272 
Q 2975 3691 2734 3919 
Q 2494 4147 2053 4147 
L 1259 4147 
z
M 628 4666 
L 2053 4666 
Q 2838 4666 3239 4311 
Q 3641 3956 3641 3272 
Q 3641 2581 3239 2228 
Q 2838 1875 2053 1875 
L 1259 1875 
L 1259 0 
L 628 0 
L 628 4666 
z
" transform="scale(0.015625)"/>
       <path id="DejaVuSans-77" d="M 269 3500 
L 844 3500 
L 1563 769 
L 2278 3500 
L 2956 3500 
L 3675 769 
L 4391 3500 
L 4966 3500 
L 4050 0 
L 3372 0 
L 2619 2869 
L 1863 0 
L 1184 0 
L 269 3500 
z
" transform="scale(0.015625)"/>
       <path id="DejaVuSans-66" d="M 2375 4863 
L 2375 4384 
L 1825 4384 
Q 1516 4384 1395 4259 
Q 1275 4134 1275 3809 
L 1275 3500 
L 2222 3500 
L 2222 3053 
L 1275 3053 
L 1275 0 
L 697 0 
L 697 3053 
L 147 3053 
L 147 3500 
L 697 3500 
L 697 3744 
Q 697 4328 969 4595 
Q 1241 4863 1831 4863 
L 2375 4863 
z
" transform="scale(0.015625)"/>
       <path id="DejaVuSans-38" d="M 2034 2216 
Q 1584 2216 1326 1975 
Q 1069 1734 1069 1313 
Q 1069 891 1326 650 
Q 1584 409 2034 409 
Q 2484 409 2743 651 
Q 3003 894 3003 1313 
Q 3003 1734 2745 1975 
Q 2488 2216 2034 2216 
z
M 1403 2484 
Q 997 2584 770 2862 
Q 544 3141 544 3541 
Q 544 4100 942 4425 
Q 1341 4750 2034 4750 
Q 2731 4750 3128 4425 
Q 3525 4100 3525 3541 
Q 3525 3141 3298 2862 
Q 3072 2584 2669 2484 
Q 3125 2378 3379 2068 
Q 3634 1759 3634 1313 
Q 3634 634 3220 271 
Q 2806 -91 2034 -91 
Q 1263 -91 848 271 
Q 434 634 434 1313 
Q 434 1759 690 2068 
Q 947 2378 1403 2484 
z
M 1172 3481 
Q 1172 3119 1398 2916 
Q 1625 2713 2034 2713 
Q 2441 2713 2670 2916 
Q 2900 3119 2900 3481 
Q 2900 3844 2670 4047 
Q 2441 4250 2034 4250 
Q 1625 4250 1398 4047 
Q 1172 3844 1172 3481 
z
" transform="scale(0.015625)"/>
       <path id="DejaVuSans-75" d="M 544 1381 
L 544 3500 
L 1119 3500 
L 1119 1403 
Q 1119 906 1312 657 
Q 1506 409 1894 409 
Q 2359 409 2629 706 
Q 2900 1003 2900 1516 
L 2900 3500 
L 3475 3500 
L 3475 0 
L 2900 0 
L 2900 538 
Q 2691 219 2414 64 
Q 2138 -91 1772 -91 
Q 1169 -91 856 284 
Q 544 659 544 1381 
z
M 1991 3584 
L 1991 3584 
z
" transform="scale(0.015625)"/>
       <path id="DejaVuSans-b1" d="M 2944 4013 
L 2944 2803 
L 4684 2803 
L 4684 2272 
L 2944 2272 
L 2944 1063 
L 2419 1063 
L 2419 2272 
L 678 2272 
L 678 2803 
L 2419 2803 
L 2419 4013 
L 2944 4013 
z
M 678 531 
L 4684 531 
L 4684 0 
L 678 0 
L 678 531 
z
" transform="scale(0.015625)"/>
       <path id="DejaVuSans-22c5" d="M 684 2619 
L 1344 2619 
L 1344 1825 
L 684 1825 
L 684 2619 
z
" transform="scale(0.015625)"/>
       <path id="DejaVuSans-53" d="M 3425 4513 
L 3425 3897 
Q 3066 4069 2747 4153 
Q 2428 4238 2131 4238 
Q 1616 4238 1336 4038 
Q 1056 3838 1056 3469 
Q 1056 3159 1242 3001 
Q 1428 2844 1947 2747 
L 2328 2669 
Q 3034 2534 3370 2195 
Q 3706 1856 3706 1288 
Q 3706 609 3251 259 
Q 2797 -91 1919 -91 
Q 1588 -91 1214 -16 
Q 841 59 441 206 
L 441 856 
Q 825 641 1194 531 
Q 1563 422 1919 422 
Q 2459 422 2753 634 
Q 3047 847 3047 1241 
Q 3047 1584 2836 1778 
Q 2625 1972 2144 2069 
L 1759 2144 
Q 1053 2284 737 2584 
Q 422 2884 422 3419 
Q 422 4038 858 4394 
Q 1294 4750 2059 4750 
Q 2388 4750 2728 4690 
Q 3069 4631 3425 4513 
z
" transform="scale(0.015625)"/>
       <path id="DejaVuSans-44" d="M 1259 4147 
L 1259 519 
L 2022 519 
Q 2988 519 3436 956 
Q 3884 1394 3884 2338 
Q 3884 3275 3436 3711 
Q 2988 4147 2022 4147 
L 1259 4147 
z
M 628 4666 
L 1925 4666 
Q 3281 4666 3915 4102 
Q 4550 3538 4550 2338 
Q 4550 1131 3912 565 
Q 3275 0 1925 0 
L 628 0 
L 628 4666 
z
" transform="scale(0.015625)"/>
      </defs>
      <use xlink:href="#DejaVuSans-50" transform="translate(0 0.015625)"/>
      <use xlink:href="#DejaVuSans-6f" transform="translate(60.302734 0.015625)"/>
      <use xlink:href="#DejaVuSans-72" transform="translate(121.484375 0.015625)"/>
      <use xlink:href="#DejaVuSans-74" transform="translate(162.597656 0.015625)"/>
      <use xlink:href="#DejaVuSans-69" transform="translate(201.806641 0.015625)"/>
      <use xlink:href="#DejaVuSans-6f" transform="translate(229.589844 0.015625)"/>
      <use xlink:href="#DejaVuSans-6e" transform="translate(290.771484 0.015625)"/>
      <use xlink:href="#DejaVuSans-20" transform="translate(354.150391 0.015625)"/>
      <use xlink:href="#DejaVuSans-77" transform="translate(385.9375 0.015625)"/>
      <use xlink:href="#DejaVuSans-6f" transform="translate(467.724609 0.015625)"/>
      <use xlink:href="#DejaVuSans-6e" transform="translate(528.90625 0.015625)"/>
      <use xlink:href="#DejaVuSans-20" transform="translate(592.285156 0.015625)"/>
      <use xlink:href="#DejaVuSans-28" transform="translate(624.072266 0.015625)"/>
      <use xlink:href="#DejaVuSans-6d" transform="translate(663.085938 0.015625)"/>
      <use xlink:href="#DejaVuSans-65" transform="translate(760.498047 0.015625)"/>
      <use xlink:href="#DejaVuSans-61" transform="translate(822.021484 0.015625)"/>
      <use xlink:href="#DejaVuSans-6e" transform="translate(883.300781 0.015625)"/>
      <use xlink:href="#DejaVuSans-20" transform="translate(946.679688 0.015625)"/>
      <use xlink:href="#DejaVuSans-6f" transform="translate(978.466797 0.015625)"/>
      <use xlink:href="#DejaVuSans-66" transform="translate(1039.648438 0.015625)"/>
      <use xlink:href="#DejaVuSans-20" transform="translate(1074.853516 0.015625)"/>
      <use xlink:href="#DejaVuSans-38" transform="translate(1106.640625 0.015625)"/>
      <use xlink:href="#DejaVuSans-20" transform="translate(1170.263672 0.015625)"/>
      <use xlink:href="#DejaVuSans-72" transform="translate(1202.050781 0.015625)"/>
      <use xlink:href="#DejaVuSans-75" transform="translate(1243.164062 0.015625)"/>
      <use xlink:href="#DejaVuSans-6e" transform="translate(1306.542969 0.015625)"/>
      <use xlink:href="#DejaVuSans-73" transform="translate(1369.921875 0.015625)"/>
      <use xlink:href="#DejaVuSans-20" transform="translate(1422.021484 0.015625)"/>
      <use xlink:href="#DejaVuSans-b1" transform="translate(1453.808594 0.015625)"/>
      <use xlink:href="#DejaVuSans-20" transform="translate(1537.597656 0.015625)"/>
      <use xlink:href="#DejaVuSans-30" transform="translate(1569.384766 0.015625)"/>
      <use xlink:href="#DejaVuSans-2e" transform="translate(1633.007812 0.015625)"/>
      <use xlink:href="#DejaVuSans-35" transform="translate(1664.794922 0.015625)"/>
      <use xlink:href="#DejaVuSans-20" transform="translate(1728.417969 0.015625)"/>
      <use xlink:href="#DejaVuSans-22c5" transform="translate(1760.205078 0.015625)"/>
      <use xlink:href="#DejaVuSans-20" transform="translate(1791.992188 0.015625)"/>
      <use xlink:href="#DejaVuSans-53" transform="translate(1823.779297 0.015625)"/>
      <use xlink:href="#DejaVuSans-44" transform="translate(1887.255859 0.015625)"/>
      <use xlink:href="#DejaVuSans-29" transform="translate(1964.257812 0.015625)"/>
     </g>
    </g>
   </g>
   <g id="line2d_19">
    <path d="M 40.5 158.4225 
L 41.934857 167.778 
L 43.369714 155.304 
L 44.804571 177.1335 
L 46.239429 158.4225 
L 47.674286 155.304 
L 49.109143 164.6595 
L 50.544 153.225 
L 51.978857 169.857 
L 53.413714 138.672 
L 54.848571 152.1855 
L 56.283429 152.1855 
L 57.718286 144.909 
L 59.153143 138.672 
L 60.588 126.198 
L 62.022857 138.672 
L 63.457714 127.2375 
L 64.892571 131.3955 
L 66.327429 124.119 
L 67.762286 127.2375 
L 69.197143 132.435 
L 70.632 127.2375 
L 72.066857 128.277 
L 74.936571 122.04 
L 76.371429 124.119 
L 77.806286 114.7635 
L 79.241143 125.1585 
L 80.676 127.2375 
L 82.110857 116.8425 
L 84.980571 118.9215 
L 86.415429 108.5265 
L 87.850286 133.4745 
L 89.285143 121.0005 
L 90.72 121.0005 
L 92.154857 129.3165 
L 93.589714 113.724 
L 95.024571 132.435 
L 96.459429 131.3955 
L 97.894286 115.803 
L 99.329143 98.1315 
L 100.764 130.356 
L 102.198857 122.04 
L 103.633714 114.7635 
L 105.068571 118.9215 
L 106.503429 116.8425 
L 107.938286 117.882 
L 109.373143 112.6845 
L 110.808 124.119 
L 112.242857 108.5265 
L 113.677714 115.803 
L 115.112571 111.645 
L 116.547429 112.6845 
L 117.982286 93.9735 
L 119.417143 119.961 
L 120.852 111.645 
L 123.721714 119.961 
L 125.156571 122.04 
L 126.591429 106.4475 
L 128.026286 96.0525 
L 129.461143 108.5265 
L 130.896 101.25 
L 132.330857 99.171 
L 133.765714 91.8945 
L 136.635429 100.2105 
L 138.070286 95.013 
L 139.505143 98.1315 
L 140.94 98.1315 
L 142.374857 107.487 
L 143.809714 90.855 
L 145.244571 107.487 
L 146.679429 100.2105 
L 148.114286 113.724 
L 149.549143 91.8945 
L 150.984 95.013 
L 152.418857 75.2625 
L 153.853714 84.618 
L 155.288571 90.855 
L 156.723429 100.2105 
L 158.158286 89.8155 
L 159.593143 82.539 
L 161.028 87.7365 
L 162.462857 80.46 
L 163.897714 93.9735 
L 165.332571 80.46 
L 166.767429 81.4995 
L 168.202286 89.8155 
L 169.637143 67.986 
L 171.072 77.3415 
L 172.506857 88.776 
L 173.941714 77.3415 
L 175.376571 80.46 
L 176.811429 73.1835 
L 178.246286 73.1835 
L 179.681143 82.539 
L 181.116 71.1045 
L 182.550857 86.697 
L 183.985714 77.3415 
L 185.420571 72.144 
L 186.855429 84.618 
L 188.290286 81.4995 
L 189.725143 83.5785 
L 191.16 76.302 
L 192.594857 71.1045 
L 194.029714 72.144 
L 195.464571 72.144 
L 196.899429 87.7365 
L 198.334286 77.3415 
L 199.769143 82.539 
L 201.204 77.3415 
L 202.638857 74.223 
L 204.073714 77.3415 
L 205.508571 65.907 
L 206.943429 74.223 
L 208.378286 69.0255 
L 209.813143 65.907 
L 211.248 64.8675 
L 212.682857 60.7095 
L 214.117714 66.9465 
L 215.552571 64.8675 
L 216.987429 77.3415 
L 218.422286 66.9465 
L 219.857143 70.065 
L 221.292 66.9465 
L 222.726857 78.381 
L 224.161714 60.7095 
L 225.596571 70.065 
L 227.031429 80.46 
L 228.466286 71.1045 
L 229.901143 74.223 
L 231.336 75.2625 
L 232.770857 59.67 
L 235.640571 76.302 
L 238.510286 67.986 
L 239.945143 75.2625 
L 241.38 73.1835 
L 242.814857 67.986 
L 244.249714 69.0255 
L 245.684571 67.986 
L 247.119429 54.4725 
L 248.554286 61.452 
L 249.989143 72.144 
L 251.424 76.896 
L 252.858857 67.392 
L 254.293714 62.64 
L 255.728571 69.768 
L 257.163429 66.204 
L 258.598286 63.828 
L 260.033143 76.302 
L 261.468 70.758 
L 262.902857 63.828 
L 264.337714 67.986 
L 265.772571 59.67 
L 267.207429 59.67 
L 268.642286 49.968 
L 270.077143 58.284 
L 271.512 62.442 
L 272.946857 65.4912 
L 274.381714 50.5224 
L 275.816571 58.8384 
L 277.251429 65.4912 
L 278.686286 58.8384 
L 280.121143 63.828 
L 281.556 65.907 
L 282.990857 72.144 
L 284.425714 61.056 
L 285.860571 59.67 
L 287.295429 55.512 
L 288.730286 55.512 
L 288.730286 55.512 
" clip-path="url(#p03613b5645)" style="fill: none; stroke: #1f77b4; stroke-width: 1.5; stroke-linecap: square"/>
   </g>
   <g id="line2d_20">
    <path d="M 40.5 180.252 
L 41.934857 166.21875 
L 43.369714 162.06075 
L 44.804571 144.909 
L 46.239429 151.66575 
L 47.674286 151.146 
L 49.109143 152.70525 
L 50.544 152.70525 
L 51.978857 124.63875 
L 53.413714 150.1065 
L 54.848571 142.31025 
L 56.283429 146.988 
L 57.718286 132.95475 
L 59.153143 142.31025 
L 60.588 140.751 
L 62.022857 122.55975 
L 63.457714 126.71775 
L 64.892571 132.435 
L 66.327429 128.277 
L 67.762286 135.03375 
L 69.197143 115.28325 
L 70.632 127.2375 
L 72.066857 130.356 
L 73.501714 117.882 
L 74.936571 118.9215 
L 76.371429 121.52025 
L 77.806286 125.1585 
L 79.241143 112.6845 
L 80.676 119.44125 
L 82.110857 122.04 
L 84.980571 118.9215 
L 86.415429 108.5265 
L 87.850286 114.24375 
L 89.285143 115.803 
L 90.72 105.408 
L 92.154857 117.882 
L 93.589714 122.04 
L 95.024571 122.55975 
L 96.459429 110.6055 
L 97.894286 110.6055 
L 99.329143 113.20425 
L 100.764 107.487 
L 102.198857 117.36225 
L 103.633714 108.5265 
L 105.068571 105.92775 
L 106.503429 96.0525 
L 107.938286 106.96725 
L 109.373143 106.96725 
L 110.808 101.76975 
L 112.242857 95.53275 
L 113.677714 112.6845 
L 115.112571 92.934 
L 116.547429 108.00675 
L 117.982286 108.5265 
L 119.417143 106.4475 
L 120.852 97.092 
L 122.286857 105.92775 
L 123.721714 108.00675 
L 125.156571 103.84875 
L 126.591429 96.0525 
L 128.026286 102.80925 
L 129.461143 98.65125 
L 130.896 110.08575 
L 133.765714 97.092 
L 135.200571 104.88825 
L 136.635429 108.00675 
L 138.070286 103.329 
L 139.505143 108.5265 
L 140.94 105.408 
L 142.374857 106.4475 
L 143.809714 108.5265 
L 145.244571 106.96725 
L 146.679429 112.6845 
L 148.114286 105.92775 
L 149.549143 112.16475 
L 150.984 111.645 
L 152.418857 104.3685 
L 153.853714 119.961 
L 155.288571 101.25 
L 156.723429 104.3685 
L 158.158286 96.0525 
L 161.028 101.25 
L 163.897714 115.803 
L 165.332571 112.16475 
L 166.767429 100.2105 
L 168.202286 110.08575 
L 169.637143 110.08575 
L 171.072 106.96725 
L 172.506857 122.04 
L 173.941714 99.171 
L 175.376571 91.8945 
L 176.811429 99.650769 
L 178.246286 93.312 
L 179.681143 93.312 
L 181.116 89.532 
L 182.550857 102.384 
L 183.985714 109.944 
L 185.420571 105.408 
L 186.855429 95.58 
L 188.290286 109.944 
L 189.725143 104.652 
L 191.16 90.288 
L 192.594857 115.236 
L 194.029714 102.384 
L 195.464571 104.652 
L 196.899429 100.872 
L 198.334286 90.288 
L 199.769143 105.408 
L 201.204 100.872 
L 202.638857 100.116 
L 204.073714 100.872 
L 205.508571 96.336 
L 206.943429 95.58 
L 208.378286 98.604 
L 209.813143 90.288 
L 211.248 97.848 
L 212.682857 94.068 
L 214.117714 97.9236 
L 216.987429 91.548 
L 218.422286 105.408 
L 219.857143 87.7365 
L 221.292 101.25 
L 222.726857 92.934 
L 224.161714 99.171 
L 225.596571 103.329 
L 227.031429 89.8155 
L 229.901143 96.0525 
L 231.336 93.9735 
L 232.770857 95.013 
L 234.205714 103.329 
L 235.640571 101.25 
L 237.075429 98.1315 
L 238.510286 107.487 
L 239.945143 86.697 
L 241.38 109.566 
L 242.814857 91.8945 
L 244.249714 95.013 
L 245.684571 88.776 
L 247.119429 88.776 
L 248.554286 95.013 
L 249.989143 96.0525 
L 251.424 93.9735 
L 252.858857 92.934 
L 254.293714 98.1315 
L 255.728571 106.4475 
L 257.163429 96.0525 
L 258.598286 109.566 
L 260.033143 98.1315 
L 261.468 102.2895 
L 262.902857 104.3685 
L 264.337714 85.6575 
L 265.772571 107.487 
L 267.207429 86.4 
L 268.642286 72.144 
L 270.077143 86.004 
L 271.512 88.776 
L 272.946857 76.302 
L 274.381714 105.408 
L 275.816571 113.724 
L 275.816571 113.724 
" clip-path="url(#p03613b5645)" style="fill: none; stroke: #ff7f0e; stroke-width: 1.5; stroke-linecap: square"/>
   </g>
   <g id="patch_3">
    <path d="M 40.5 288.36 
L 40.5 38.88 
" style="fill: none; stroke: #000000; stroke-width: 0.8; stroke-linejoin: miter; stroke-linecap: square"/>
   </g>
   <g id="patch_4">
    <path d="M 291.6 288.36 
L 291.6 38.88 
" style="fill: none; stroke: #000000; stroke-width: 0.8; stroke-linejoin: miter; stroke-linecap: square"/>
   </g>
   <g id="patch_5">
    <path d="M 40.5 288.36 
L 291.6 288.36 
" style="fill: none; stroke: #000000; stroke-width: 0.8; stroke-linejoin: miter; stroke-linecap: square"/>
   </g>
   <g id="patch_6">
    <path d="M 40.5 38.88 
L 291.6 38.88 
" style="fill: none; stroke: #000000; stroke-width: 0.8; stroke-linejoin: miter; stroke-linecap: square"/>
   </g>
   <g id="legend_1">
    <g id="patch_7">
     <path d="M 168.967188 283.36 
L 284.6 283.36 
Q 286.6 283.36 286.6 281.36 
L 286.6 253.00375 
Q 286.6 251.00375 284.6 251.00375 
L 168.967188 251.00375 
Q 166.967188 251.00375 166.967188 253.00375 
L 166.967188 281.36 
Q 166.967188 283.36 168.967188 283.36 
z
" style="fill: #ffffff; opacity: 0.8; stroke: #cccccc; stroke-linejoin: miter"/>
    </g>
    <g id="line2d_21">
     <path d="M 170.967188 259.102188 
L 180.967188 259.102188 
L 190.967188 259.102188 
" style="fill: none; stroke: #1f77b4; stroke-width: 1.5; stroke-linecap: square"/>
    </g>
    <g id="text_12">
     <!-- Non-Atomic DQV -->
     <g transform="translate(198.967188 262.602188) scale(0.1 -0.1)">
      <defs>
       <path id="DejaVuSans-4e" d="M 628 4666 
L 1478 4666 
L 3547 763 
L 3547 4666 
L 4159 4666 
L 4159 0 
L 3309 0 
L 1241 3903 
L 1241 0 
L 628 0 
L 628 4666 
z
" transform="scale(0.015625)"/>
       <path id="DejaVuSans-2d" d="M 313 2009 
L 1997 2009 
L 1997 1497 
L 313 1497 
L 313 2009 
z
" transform="scale(0.015625)"/>
       <path id="DejaVuSans-41" d="M 2188 4044 
L 1331 1722 
L 3047 1722 
L 2188 4044 
z
M 1831 4666 
L 2547 4666 
L 4325 0 
L 3669 0 
L 3244 1197 
L 1141 1197 
L 716 0 
L 50 0 
L 1831 4666 
z
" transform="scale(0.015625)"/>
       <path id="DejaVuSans-51" d="M 2522 4238 
Q 1834 4238 1429 3725 
Q 1025 3213 1025 2328 
Q 1025 1447 1429 934 
Q 1834 422 2522 422 
Q 3209 422 3611 934 
Q 4013 1447 4013 2328 
Q 4013 3213 3611 3725 
Q 3209 4238 2522 4238 
z
M 3406 84 
L 4238 -825 
L 3475 -825 
L 2784 -78 
Q 2681 -84 2626 -87 
Q 2572 -91 2522 -91 
Q 1538 -91 948 567 
Q 359 1225 359 2328 
Q 359 3434 948 4092 
Q 1538 4750 2522 4750 
Q 3503 4750 4090 4092 
Q 4678 3434 4678 2328 
Q 4678 1516 4351 937 
Q 4025 359 3406 84 
z
" transform="scale(0.015625)"/>
       <path id="DejaVuSans-56" d="M 1831 0 
L 50 4666 
L 709 4666 
L 2188 738 
L 3669 4666 
L 4325 4666 
L 2547 0 
L 1831 0 
z
" transform="scale(0.015625)"/>
      </defs>
      <use xlink:href="#DejaVuSans-4e"/>
      <use xlink:href="#DejaVuSans-6f" x="74.804688"/>
      <use xlink:href="#DejaVuSans-6e" x="135.986328"/>
      <use xlink:href="#DejaVuSans-2d" x="199.365234"/>
      <use xlink:href="#DejaVuSans-41" x="233.199219"/>
      <use xlink:href="#DejaVuSans-74" x="299.857422"/>
      <use xlink:href="#DejaVuSans-6f" x="339.066406"/>
      <use xlink:href="#DejaVuSans-6d" x="400.248047"/>
      <use xlink:href="#DejaVuSans-69" x="497.660156"/>
      <use xlink:href="#DejaVuSans-63" x="525.443359"/>
      <use xlink:href="#DejaVuSans-20" x="580.423828"/>
      <use xlink:href="#DejaVuSans-44" x="612.210938"/>
      <use xlink:href="#DejaVuSans-51" x="689.212891"/>
      <use xlink:href="#DejaVuSans-56" x="767.923828"/>
     </g>
    </g>
    <g id="line2d_22">
     <path d="M 170.967188 273.780313 
L 180.967188 273.780313 
L 190.967188 273.780313 
" style="fill: none; stroke: #ff7f0e; stroke-width: 1.5; stroke-linecap: square"/>
    </g>
    <g id="text_13">
     <!-- Atomic DQV -->
     <g transform="translate(198.967188 277.280313) scale(0.1 -0.1)">
      <use xlink:href="#DejaVuSans-41"/>
      <use xlink:href="#DejaVuSans-74" x="66.658203"/>
      <use xlink:href="#DejaVuSans-6f" x="105.867188"/>
      <use xlink:href="#DejaVuSans-6d" x="167.048828"/>
      <use xlink:href="#DejaVuSans-69" x="264.460938"/>
      <use xlink:href="#DejaVuSans-63" x="292.244141"/>
      <use xlink:href="#DejaVuSans-20" x="347.224609"/>
      <use xlink:href="#DejaVuSans-44" x="379.011719"/>
      <use xlink:href="#DejaVuSans-51" x="456.013672"/>
      <use xlink:href="#DejaVuSans-56" x="534.724609"/>
     </g>
    </g>
   </g>
  </g>
 </g>
 <defs>
  <clipPath id="p03613b5645">
   <rect x="40.5" y="38.88" width="251.1" height="249.48"/>
  </clipPath>
 </defs>
</svg>
